<svg version="1.1" id="Layer_1" xmlns="http://www.w3.org/2000/svg" xmlns:xlink="http://www.w3.org/1999/xlink" x="0px" y="0px"
	 width="100%" viewBox="0 0 813 813" enable-background="new 0 0 813 813" xml:space="preserve">
<path fill="#FFFFFF" opacity="1.000000" stroke="none" 
	d="
M814.000000,291.000000 
	C814.000000,465.666595 814.000000,639.833191 814.000000,813.999817 
	C543.000183,813.999878 272.000427,813.999878 1.000478,813.999939 
	C1.000319,543.000366 1.000319,272.000671 1.000159,1.000769 
	C271.999542,1.000512 542.999084,1.000512 813.999268,1.000256 
	C814.000000,97.500000 814.000000,194.000000 814.000000,291.000000 
M26.468248,410.058594 
	C25.130562,413.022491 25.359266,415.734009 27.595388,418.242798 
	C32.215576,423.426514 36.697823,428.735229 41.388054,433.853943 
	C50.014641,443.268707 58.737297,452.595642 67.443817,461.936890 
	C81.468819,476.984344 95.518120,492.009155 109.547600,507.052460 
	C118.484116,516.634705 127.392654,526.242920 136.332748,535.821838 
	C150.595154,551.103333 164.886215,566.358215 179.140106,581.647705 
	C187.620575,590.744385 196.000198,599.935486 204.519882,608.994995 
	C216.576996,621.816162 228.745178,634.532898 240.806335,647.350281 
	C242.886139,649.560486 244.670334,652.048828 247.273499,655.247070 
	C188.209000,655.247070 130.308975,655.247070 72.294533,655.247070 
	C72.294533,697.966736 72.294533,740.210449 72.294533,783.000000 
	C74.534691,783.000000 76.488007,783.000000 78.441322,783.000000 
	C114.770668,783.000000 151.100006,783.000000 187.429352,783.000000 
	C244.589737,783.000000 301.750214,783.047180 358.910339,782.922913 
	C364.285919,782.911194 368.465515,784.356201 372.038971,788.442932 
	C376.951263,794.060913 382.121429,799.462891 387.349823,804.791931 
	C391.639282,809.164062 394.387573,809.143494 398.715637,804.728760 
	C403.475464,799.873718 408.444244,795.130249 412.538788,789.742920 
	C416.493774,784.539124 421.299011,782.941406 427.482208,782.946533 
	C520.971924,783.023621 614.461609,783.001221 707.951355,782.997192 
	C713.876892,782.996948 714.979675,781.991455 714.984375,776.107361 
	C715.014282,738.944763 715.171082,701.780884 714.875977,664.620605 
	C714.803833,655.535278 712.759033,654.959229 705.363464,654.967590 
	C651.869446,655.028015 598.375305,655.000000 544.881165,655.000000 
	C543.147766,655.000000 541.414368,655.000000 538.614990,655.000000 
	C551.208008,641.320496 562.948669,628.527893 574.734436,615.776978 
	C583.628052,606.155029 592.563232,596.571228 601.508667,586.997437 
	C616.120789,571.358765 630.764832,555.750000 645.378967,540.113281 
	C654.439392,530.418823 663.460205,520.687500 672.515137,510.987946 
	C686.779480,495.708252 701.011414,480.397980 715.343445,465.181915 
	C728.210205,451.521484 741.208618,437.985138 754.107300,424.354614 
	C755.919495,422.439575 757.673950,420.420410 759.138184,418.236847 
	C761.509399,414.700684 761.346558,411.124695 758.397888,407.912231 
	C746.853088,395.334503 735.312439,382.752625 723.710876,370.227295 
	C710.298767,355.747253 696.834351,341.315491 683.373718,326.880432 
	C669.231567,311.714539 655.058899,296.577148 640.915222,281.412689 
	C632.091919,271.952606 623.307434,262.456299 614.487976,252.992538 
	C600.577576,238.065933 586.650879,223.154572 572.734070,208.233932 
	C558.930847,193.435104 545.131470,178.632690 531.330322,163.831940 
	C517.529175,149.031235 503.771210,134.189911 489.913635,119.442215 
	C477.633575,106.373405 465.232758,93.418159 452.905640,80.393478 
	C447.887115,75.090988 442.911041,69.748199 437.935547,64.405190 
	C424.711914,50.204826 411.565125,35.932026 398.239960,21.827669 
	C394.464478,17.831377 391.577057,17.980543 387.606537,21.968483 
	C384.221466,25.368422 381.153015,29.081335 377.885071,32.600647 
	C368.742645,42.446274 359.575256,52.268688 350.407135,62.090431 
	C336.257294,77.249153 322.095245,92.396461 307.944763,107.554626 
	C294.021606,122.469307 280.108215,137.393127 266.187256,152.309921 
	C252.152710,167.348434 238.112335,182.381546 224.077927,197.420212 
	C210.157135,212.337158 196.239197,227.256729 182.322586,242.177567 
	C168.519577,256.976593 154.719070,271.777924 140.918884,286.579559 
	C131.756577,296.406708 122.603767,306.242737 113.434158,316.063110 
	C99.168297,331.341400 84.933022,346.648560 70.607246,361.870575 
	C58.088634,375.172363 45.426899,388.339569 32.918209,401.650635 
	C30.675728,404.036957 28.870312,406.833984 26.468248,410.058594 
z"/>
<path fill="#F3AE85" opacity="1.000000" stroke="none" 
	d="
M26.665674,409.750000 
	C28.870312,406.833984 30.675728,404.036957 32.918209,401.650635 
	C45.426899,388.339569 58.088634,375.172363 70.607246,361.870575 
	C84.933022,346.648560 99.168297,331.341400 113.434158,316.063110 
	C122.603767,306.242737 131.756577,296.406708 140.918884,286.579559 
	C154.719070,271.777924 168.519577,256.976593 182.322586,242.177567 
	C196.239197,227.256729 210.157135,212.337158 224.077927,197.420212 
	C238.112335,182.381546 252.152710,167.348434 266.187256,152.309921 
	C280.108215,137.393127 294.021606,122.469307 307.944763,107.554626 
	C322.095245,92.396461 336.257294,77.249153 350.407135,62.090431 
	C359.575256,52.268688 368.742645,42.446274 377.885071,32.600647 
	C381.153015,29.081335 384.221466,25.368422 387.606537,21.968483 
	C391.577057,17.980543 394.464478,17.831377 398.239960,21.827669 
	C411.565125,35.932026 424.711914,50.204826 437.935547,64.405190 
	C442.911041,69.748199 447.887115,75.090988 452.905640,80.393478 
	C465.232758,93.418159 477.633575,106.373405 489.913635,119.442215 
	C503.771210,134.189911 517.529175,149.031235 531.330322,163.831940 
	C545.131470,178.632690 558.930847,193.435104 572.734070,208.233932 
	C586.650879,223.154572 600.577576,238.065933 614.487976,252.992538 
	C623.307434,262.456299 632.091919,271.952606 640.915222,281.412689 
	C655.058899,296.577148 669.231567,311.714539 683.373718,326.880432 
	C696.834351,341.315491 710.298767,355.747253 723.710876,370.227295 
	C735.312439,382.752625 746.853088,395.334503 758.397888,407.912231 
	C761.346558,411.124695 761.509399,414.700684 759.138184,418.236847 
	C757.673950,420.420410 755.919495,422.439575 754.107300,424.354614 
	C741.208618,437.985138 728.210205,451.521484 715.343445,465.181915 
	C701.011414,480.397980 686.779480,495.708252 672.515137,510.987946 
	C663.460205,520.687500 654.439392,530.418823 645.378967,540.113281 
	C630.764832,555.750000 616.120789,571.358765 601.508667,586.997437 
	C592.563232,596.571228 583.628052,606.155029 574.734436,615.776978 
	C562.948669,628.527893 551.208008,641.320496 538.614990,655.000000 
	C541.414368,655.000000 543.147766,655.000000 544.881165,655.000000 
	C598.375305,655.000000 651.869446,655.028015 705.363464,654.967590 
	C712.759033,654.959229 714.803833,655.535278 714.875977,664.620605 
	C715.171082,701.780884 715.014282,738.944763 714.984375,776.107361 
	C714.979675,781.991455 713.876892,782.996948 707.951355,782.997192 
	C614.461609,783.001221 520.971924,783.023621 427.482208,782.946533 
	C421.299011,782.941406 416.493774,784.539124 412.538788,789.742920 
	C408.444244,795.130249 403.475464,799.873718 398.715637,804.728760 
	C394.387573,809.143494 391.639282,809.164062 387.349823,804.791931 
	C382.121429,799.462891 376.951263,794.060913 372.038971,788.442932 
	C368.465515,784.356201 364.285919,782.911194 358.910339,782.922913 
	C301.750214,783.047180 244.589737,783.000000 187.429352,783.000000 
	C151.100006,783.000000 114.770668,783.000000 78.441322,783.000000 
	C76.488007,783.000000 74.534691,783.000000 72.294533,783.000000 
	C72.294533,740.210449 72.294533,697.966736 72.294533,655.247070 
	C130.308975,655.247070 188.209000,655.247070 247.273499,655.247070 
	C244.670334,652.048828 242.886139,649.560486 240.806335,647.350281 
	C228.745178,634.532898 216.576996,621.816162 204.519882,608.994995 
	C196.000198,599.935486 187.620575,590.744385 179.140106,581.647705 
	C164.886215,566.358215 150.595154,551.103333 136.332748,535.821838 
	C127.392654,526.242920 118.484116,516.634705 109.547600,507.052460 
	C95.518120,492.009155 81.468819,476.984344 67.443817,461.936890 
	C58.737297,452.595642 50.014641,443.268707 41.388054,433.853943 
	C36.697823,428.735229 32.215576,423.426514 27.595388,418.242798 
	C25.359266,415.734009 25.130562,413.022491 26.665674,409.750000 
M623.484131,521.972046 
	C657.041809,485.924561 690.599487,449.877075 724.568604,413.387634 
	C614.021484,294.805847 503.634277,176.395538 392.943817,57.659939 
	C282.339966,176.306747 172.056778,294.609589 61.395340,413.318207 
	C67.344116,419.792725 73.016151,426.049957 78.778313,432.223022 
	C104.111725,459.363129 129.513779,486.439270 154.811600,513.612427 
	C197.236267,559.182007 239.549057,604.856079 282.123444,650.285034 
	C284.575684,652.901672 288.809204,654.275330 292.473206,655.206482 
	C295.941071,656.087891 299.750671,655.734558 303.410034,655.735962 
	C364.228516,655.758972 425.047363,655.651123 485.865082,655.863220 
	C494.818939,655.894409 501.383392,653.236389 507.640320,646.429138 
	C545.833130,604.877441 584.483826,563.746643 623.484131,521.972046 
M64.056961,425.435120 
	C62.699432,423.969513 61.270893,422.562897 59.996204,421.028473 
	C53.040619,412.655670 51.413807,415.084320 60.502773,405.294037 
	C92.224060,371.125061 124.048706,337.052063 155.832092,302.940704 
	C183.075195,273.702148 210.297455,244.444122 237.561951,215.225510 
	C268.123383,182.473648 298.746063,149.778931 329.295624,117.015991 
	C348.938843,95.949600 368.505188,74.811539 388.089661,53.690453 
	C392.339539,49.107082 392.956879,49.073792 397.381714,53.834091 
	C405.203552,62.248898 412.985535,70.700783 420.821442,79.102409 
	C458.072083,119.042534 495.327148,158.978531 532.596802,198.900955 
	C558.620239,226.776688 584.702026,254.597992 610.700012,282.497437 
	C649.522339,324.159332 688.284363,365.877411 727.097656,407.547791 
	C732.589539,413.443848 732.681091,414.163239 727.080139,420.190033 
	C718.013306,429.946198 708.908508,439.667023 699.822327,449.405273 
	C671.992371,479.232697 644.180298,509.076904 616.329956,538.885254 
	C585.066895,572.346191 553.761414,605.767517 522.496521,639.226685 
	C517.915771,644.129028 513.457581,649.145874 508.648193,654.433533 
	C515.951538,656.128296 521.254761,654.545898 525.430054,649.261108 
	C527.178101,647.048462 529.332520,645.160217 531.261169,643.086365 
	C573.671570,597.483276 616.049011,551.849487 658.492126,506.276825 
	C684.594849,478.249451 710.805908,450.323029 736.938538,422.323456 
	C739.611084,419.459991 742.078186,416.404755 744.888000,413.152191 
	C627.396545,287.119263 510.257721,161.464539 392.930145,35.607368 
	C275.399872,161.701385 158.212723,287.427307 40.996159,413.184753 
	C42.433609,414.877960 43.252098,415.921204 44.151173,416.889618 
	C68.281845,442.880371 92.393173,468.889130 116.564682,494.841858 
	C154.699692,535.787109 192.873154,576.696533 231.036789,617.615112 
	C241.486481,628.819214 251.887817,640.069763 262.451599,651.165466 
	C267.650787,656.626465 271.565582,657.281372 276.749481,654.151245 
	C276.523132,653.728455 276.374146,653.228333 276.055481,652.886353 
	C205.563248,577.228821 135.059067,501.582489 64.056961,425.435120 
M120.767883,740.924194 
	C125.542847,741.952026 130.285873,743.575623 135.102112,743.833801 
	C139.583893,744.074158 143.095963,744.828430 145.720016,748.811707 
	C148.263138,752.672180 151.986954,752.861511 157.262543,750.885254 
	C148.182037,744.819641 147.024185,738.337952 152.604614,729.424561 
	C157.650330,721.365356 156.212570,712.281799 150.219437,704.758118 
	C143.783066,696.678101 134.902512,695.282166 125.392883,697.762085 
	C116.304497,700.132080 111.523575,706.887512 110.222244,715.683289 
	C108.752518,725.617371 111.074745,734.550049 120.767883,740.924194 
M445.006897,742.887573 
	C446.044861,742.330750 447.082855,741.773987 448.574615,740.973755 
	C447.174469,739.947205 446.436981,739.277527 445.589233,738.806274 
	C440.708130,736.093079 438.385437,732.781982 441.555542,727.056030 
	C442.759613,724.881165 442.517975,721.905884 442.994476,718.924988 
	C436.476562,719.428101 436.554382,724.553589 434.250305,728.351074 
	C429.321289,723.058899 424.436096,718.133972 419.940765,712.875732 
	C416.893463,709.311340 417.411011,705.918884 420.871277,703.382324 
	C424.420959,700.780151 427.084503,702.511841 429.291870,705.454285 
	C430.895020,707.591248 433.177765,709.183594 434.863495,706.674866 
	C435.717041,705.404419 434.617493,701.950745 433.343536,700.300354 
	C430.560455,696.694885 422.256866,695.716980 418.035675,697.915527 
	C413.313873,700.374634 410.233429,705.662537 412.272552,710.910400 
	C414.275543,716.065308 412.785431,718.862244 409.371674,722.418701 
	C404.890991,727.086548 404.708832,732.716797 407.768311,737.499573 
	C411.038574,742.611877 416.940338,744.674133 423.262848,743.075989 
	C429.560760,741.484131 435.861450,736.620605 442.276764,742.918152 
	C442.618011,743.253113 443.565460,742.970520 445.006897,742.887573 
M369.031799,704.519470 
	C364.633789,709.125854 361.415710,715.184387 354.002380,717.488770 
	C354.002380,711.157837 354.160522,705.832581 353.879669,700.530640 
	C353.817505,699.357483 352.296844,697.480286 351.277527,697.359009 
	C350.260529,697.238159 348.052277,698.900391 348.039032,699.805359 
	C347.830658,714.035645 347.892822,728.269897 347.892822,742.660522 
	C350.518372,742.660522 352.430695,742.660522 354.844360,742.660522 
	C354.844360,735.822937 354.844360,729.251770 354.844360,721.710388 
	C357.410248,723.272339 359.505432,724.042786 360.897156,725.489807 
	C365.046112,729.803406 369.123657,734.220459 372.834686,738.909302 
	C375.781158,742.632202 379.098633,743.884094 384.460754,742.277222 
	C378.609894,735.253113 373.211700,728.577637 367.576080,722.108887 
	C365.508667,719.735779 365.480743,718.103760 367.639282,715.772583 
	C372.816437,710.181213 377.739655,704.354736 382.765350,698.623108 
	C382.574097,698.110596 382.382874,697.598083 382.191620,697.085510 
	C379.678925,697.594971 376.891693,697.595459 374.732300,698.759949 
	C372.656982,699.879150 371.231781,702.203796 369.031799,704.519470 
M189.004593,710.516846 
	C189.001266,707.189087 189.289261,703.821899 188.847534,700.553406 
	C188.677048,699.291870 186.849960,698.254211 185.777634,697.114563 
	C184.530441,698.309021 182.244385,699.468323 182.202606,700.703491 
	C181.904617,709.511414 181.757492,718.348938 182.163086,727.149353 
	C182.590073,736.413757 189.930527,743.662415 198.820267,743.957703 
	C207.974960,744.261902 217.673996,739.363770 218.211197,728.863770 
	C218.703064,719.249695 218.769913,709.610962 218.826187,699.981934 
	C218.831635,699.049927 217.544037,697.466614 216.673080,697.326416 
	C215.411804,697.123413 213.492477,697.562317 212.758224,698.463928 
	C211.962814,699.440613 212.056747,701.259094 212.020248,702.716858 
	C211.816437,710.853882 212.260559,719.056030 211.367783,727.112305 
	C210.574280,734.272888 205.838242,737.527832 199.360474,737.022461 
	C193.580261,736.571533 189.226151,731.597656 189.030945,724.987366 
	C188.898407,720.498779 189.004959,716.003052 189.004593,710.516846 
M537.229736,731.038208 
	C539.892212,731.027710 542.590820,731.294006 545.209961,730.951904 
	C551.623840,730.113831 555.695374,732.132507 557.306091,738.878540 
	C558.116760,742.273804 560.824646,743.970398 565.030273,742.415283 
	C564.862610,740.960449 564.994202,739.418823 564.488098,738.127197 
	C559.519775,725.449036 554.435364,712.816345 549.407349,700.161499 
	C547.996887,696.611572 545.455017,696.083496 542.721497,698.188110 
	C540.991394,699.520142 539.525269,701.568604 538.670959,703.602478 
	C534.042480,714.620789 529.610413,725.722290 525.194275,736.828369 
	C524.494446,738.588257 524.219788,740.517212 523.745300,742.380554 
	C528.240601,744.066406 530.445435,742.419373 532.021484,738.761597 
	C533.164429,736.108887 534.915405,733.718079 537.229736,731.038208 
M480.534912,716.113831 
	C479.855042,711.902039 479.175201,707.690247 478.399078,702.882202 
	C486.677917,702.882202 493.610413,702.882202 500.606140,702.882202 
	C500.606140,700.719360 500.606140,699.016235 500.606140,696.999878 
	C493.413513,696.999878 486.600769,696.996765 479.787994,697.000793 
	C473.112213,697.004700 472.362061,697.577942 472.266846,704.380310 
	C472.119904,714.877380 472.223175,725.377991 472.220551,735.877075 
	C472.219971,738.141479 472.220459,740.405945 472.220459,742.654114 
	C482.253632,742.654114 491.507538,742.654114 500.668854,742.654114 
	C501.862854,738.626892 500.505493,736.947632 496.656555,737.040894 
	C492.825867,737.133850 488.978943,736.862671 485.160980,737.101257 
	C479.879700,737.431274 479.133301,733.927368 479.061188,730.082275 
	C478.986481,726.096741 480.072784,722.920349 485.174805,722.987000 
	C488.281403,723.027527 491.452515,722.600708 494.477325,721.886780 
	C495.469086,721.652710 496.091919,719.855469 496.883484,718.773010 
	C495.826019,718.184631 494.800934,717.166809 493.705353,717.084167 
	C489.567841,716.772034 485.407440,716.763733 480.534912,716.113831 
M610.606873,718.733154 
	C608.145325,717.748352 605.673889,716.787292 603.224487,715.773193 
	C599.609192,714.276245 595.382507,712.409241 596.459045,707.893860 
	C597.664551,702.837646 602.618896,703.955688 606.540039,704.114563 
	C607.346741,704.147217 608.138489,704.716553 608.938232,704.719055 
	C610.819641,704.725037 612.701721,704.538086 614.583496,704.429199 
	C614.880249,703.849609 615.177002,703.270020 615.473755,702.690430 
	C613.451111,700.945312 611.684998,698.492554 609.338135,697.641907 
	C606.661926,696.671875 603.446533,696.823669 600.503906,697.031982 
	C594.677368,697.444702 589.854492,701.905945 589.071594,707.148682 
	C588.115173,713.552979 590.544922,718.138000 596.523682,720.831238 
	C599.241516,722.055542 602.561768,722.420593 604.743164,724.223022 
	C606.922546,726.023804 609.755310,729.698914 609.159058,731.527649 
	C608.391541,733.881653 604.699829,735.840271 601.873596,736.766113 
	C600.033569,737.368835 597.479980,735.871094 595.269165,735.234314 
	C594.002991,734.869507 592.756042,733.927185 591.549622,734.005310 
	C590.277039,734.087708 588.519714,734.783875 587.997375,735.759644 
	C587.588013,736.524353 588.380737,738.641357 589.265320,739.254089 
	C591.697205,740.938599 594.352112,742.422485 597.111023,743.488342 
	C602.993164,745.760742 612.092468,742.119019 615.228699,736.503662 
	C618.906128,729.919250 617.555115,723.963928 610.606873,718.733154 
M305.444763,744.003845 
	C309.475220,742.651917 313.635376,741.579956 317.469208,739.803711 
	C318.906738,739.137634 319.585602,736.834045 320.610352,735.277100 
	C318.497040,735.111145 316.384888,734.925964 314.269135,734.801636 
	C313.979279,734.784668 313.675262,735.078735 313.371735,735.215271 
	C301.558563,740.528625 291.092834,734.666992 290.186920,721.765381 
	C289.224335,708.056152 300.320129,698.741699 312.690125,704.910400 
	C313.576324,705.352356 314.585815,706.052063 315.442902,705.935059 
	C316.921021,705.733398 318.324341,704.983704 319.759064,704.463928 
	C319.104462,703.116455 318.802490,701.305908 317.738647,700.495728 
	C310.148132,694.715271 296.982483,695.570251 290.050720,702.279541 
	C282.884857,709.215515 281.527496,717.966003 283.634277,727.158936 
	C286.123291,738.019958 294.198883,742.623047 305.444763,744.003845 
M668.603271,715.119812 
	C671.925598,709.661865 675.247864,704.203918 678.620422,698.663391 
	C673.783997,695.641602 671.168030,697.463745 669.031433,701.126282 
	C665.842712,706.592224 662.566650,712.007324 658.858765,718.231201 
	C655.136169,711.809875 652.096802,706.486938 648.977417,701.211182 
	C646.395508,696.844788 643.912048,696.146423 639.347717,698.723206 
	C641.588989,702.393494 643.620544,706.202209 646.103271,709.689636 
	C652.027954,718.012146 656.133545,726.727051 655.097839,737.402222 
	C654.537964,743.173645 655.209045,743.362854 662.194519,742.361206 
	C661.237366,732.936462 661.761963,723.582886 668.603271,715.119812 
M255.775421,711.513672 
	C255.775330,708.356140 255.775223,705.198547 255.775177,702.041016 
	C255.775146,699.697510 256.120483,697.135986 252.578903,697.061646 
	C248.996353,696.986389 248.701309,699.443604 248.669022,702.114380 
	C248.522491,714.232727 248.385880,726.351196 248.215378,738.469238 
	C248.180054,740.979004 248.244659,742.967102 251.766861,743.030090 
	C255.353363,743.094116 255.846252,741.362427 255.811386,738.433228 
	C255.708542,729.792725 255.774887,721.150269 255.775421,711.513672 
M388.273926,786.174744 
	C395.060059,790.325806 395.809235,790.126038 399.336884,783.000793 
	C395.621674,783.000793 392.028870,782.915710 388.442291,783.028809 
	C385.765900,783.113159 385.512665,784.174988 388.273926,786.174744 
z"/>
<path fill="#4960A6" opacity="1.000000" stroke="none" 
	d="
M623.232971,522.223755 
	C584.483826,563.746643 545.833130,604.877441 507.640320,646.429138 
	C501.383392,653.236389 494.818939,655.894409 485.865082,655.863220 
	C425.047363,655.651123 364.228516,655.758972 303.410034,655.735962 
	C299.750671,655.734558 295.941071,656.087891 292.473206,655.206482 
	C288.809204,654.275330 284.575684,652.901672 282.123444,650.285034 
	C239.549057,604.856079 197.236267,559.182007 154.811600,513.612427 
	C129.513779,486.439270 104.111725,459.363129 78.778313,432.223022 
	C73.016151,426.049957 67.344116,419.792725 61.395340,413.318207 
	C172.056778,294.609589 282.339966,176.306747 392.943817,57.659939 
	C503.634277,176.395538 614.021484,294.805847 724.568604,413.387634 
	C690.599487,449.877075 657.041809,485.924561 623.232971,522.223755 
M499.500549,568.128723 
	C508.500702,568.128723 517.500854,568.128723 527.949158,568.128723 
	C506.933838,545.161987 487.119141,523.507324 467.891754,502.494537 
	C476.078644,493.760132 484.518738,486.285736 491.100647,477.430237 
	C507.211578,455.754211 515.000977,431.209778 515.195496,403.948914 
	C515.326599,385.578369 513.282410,367.720490 506.571625,350.741364 
	C488.528595,305.090088 452.986298,282.615875 405.690643,277.243408 
	C391.575714,275.640076 377.242615,277.013885 363.101288,279.869934 
	C303.078125,291.992432 274.981140,342.796783 270.195129,387.975281 
	C268.166290,407.126831 271.969330,425.920898 277.812347,444.327972 
	C294.399200,496.580994 337.438507,519.040710 380.700897,523.646545 
	C393.149872,524.971985 406.136841,522.711914 418.706177,520.905640 
	C426.649567,519.764221 431.910370,521.332581 437.090424,527.738586 
	C445.867645,538.593201 455.558716,548.735474 465.245850,558.811646 
	C468.147766,561.830017 472.042664,564.855530 475.961060,565.727417 
	C483.289642,567.357971 490.968048,567.416382 499.500549,568.128723 
z"/>
<path fill="#5163A4" opacity="1.000000" stroke="none" 
	d="
M64.306114,425.685455 
	C135.059067,501.582489 205.563248,577.228821 276.055481,652.886353 
	C276.374146,653.228333 276.523132,653.728455 276.749481,654.151245 
	C271.565582,657.281372 267.650787,656.626465 262.451599,651.165466 
	C251.887817,640.069763 241.486481,628.819214 231.036789,617.615112 
	C192.873154,576.696533 154.699692,535.787109 116.564682,494.841858 
	C92.393173,468.889130 68.281845,442.880371 44.151173,416.889618 
	C43.252098,415.921204 42.433609,414.877960 40.996159,413.184753 
	C158.212723,287.427307 275.399872,161.701385 392.930145,35.607368 
	C510.257721,161.464539 627.396545,287.119263 744.888000,413.152191 
	C742.078186,416.404755 739.611084,419.459991 736.938538,422.323456 
	C710.805908,450.323029 684.594849,478.249451 658.492126,506.276825 
	C616.049011,551.849487 573.671570,597.483276 531.261169,643.086365 
	C529.332520,645.160217 527.178101,647.048462 525.430054,649.261108 
	C521.254761,654.545898 515.951538,656.128296 508.648193,654.433533 
	C513.457581,649.145874 517.915771,644.129028 522.496521,639.226685 
	C553.761414,605.767517 585.066895,572.346191 616.329956,538.885254 
	C644.180298,509.076904 671.992371,479.232697 699.822327,449.405273 
	C708.908508,439.667023 718.013306,429.946198 727.080139,420.190033 
	C732.681091,414.163239 732.589539,413.443848 727.097656,407.547791 
	C688.284363,365.877411 649.522339,324.159332 610.700012,282.497437 
	C584.702026,254.597992 558.620239,226.776688 532.596802,198.900955 
	C495.327148,158.978531 458.072083,119.042534 420.821442,79.102409 
	C412.985535,70.700783 405.203552,62.248898 397.381714,53.834091 
	C392.956879,49.073792 392.339539,49.107082 388.089661,53.690453 
	C368.505188,74.811539 348.938843,95.949600 329.295624,117.015991 
	C298.746063,149.778931 268.123383,182.473648 237.561951,215.225510 
	C210.297455,244.444122 183.075195,273.702148 155.832092,302.940704 
	C124.048706,337.052063 92.224060,371.125061 60.502773,405.294037 
	C51.413807,415.084320 53.040619,412.655670 59.996204,421.028473 
	C61.270893,422.562897 62.699432,423.969513 64.306114,425.685455 
z"/>
<path fill="#5365A4" opacity="1.000000" stroke="none" 
	d="
M120.444969,740.734192 
	C111.074745,734.550049 108.752518,725.617371 110.222244,715.683289 
	C111.523575,706.887512 116.304497,700.132080 125.392883,697.762085 
	C134.902512,695.282166 143.783066,696.678101 150.219437,704.758118 
	C156.212570,712.281799 157.650330,721.365356 152.604614,729.424561 
	C147.024185,738.337952 148.182037,744.819641 157.262543,750.885254 
	C151.986954,752.861511 148.263138,752.672180 145.720016,748.811707 
	C143.095963,744.828430 139.583893,744.074158 135.102112,743.833801 
	C130.285873,743.575623 125.542847,741.952026 120.444969,740.734192 
M146.634872,728.747742 
	C147.088333,724.666504 148.147736,720.543396 147.869415,716.512695 
	C147.285873,708.061584 140.811798,702.681885 132.413162,702.900696 
	C122.375183,703.162170 116.618843,710.017517 116.890594,721.386719 
	C117.084396,729.494873 121.974548,735.792053 129.642059,737.807007 
	C135.141586,739.252197 142.338150,735.620544 146.634872,728.747742 
z"/>
<path fill="#5565A4" opacity="1.000000" stroke="none" 
	d="
M444.618774,742.931519 
	C443.565460,742.970520 442.618011,743.253113 442.276764,742.918152 
	C435.861450,736.620605 429.560760,741.484131 423.262848,743.075989 
	C416.940338,744.674133 411.038574,742.611877 407.768311,737.499573 
	C404.708832,732.716797 404.890991,727.086548 409.371674,722.418701 
	C412.785431,718.862244 414.275543,716.065308 412.272552,710.910400 
	C410.233429,705.662537 413.313873,700.374634 418.035675,697.915527 
	C422.256866,695.716980 430.560455,696.694885 433.343536,700.300354 
	C434.617493,701.950745 435.717041,705.404419 434.863495,706.674866 
	C433.177765,709.183594 430.895020,707.591248 429.291870,705.454285 
	C427.084503,702.511841 424.420959,700.780151 420.871277,703.382324 
	C417.411011,705.918884 416.893463,709.311340 419.940765,712.875732 
	C424.436096,718.133972 429.321289,723.058899 434.250305,728.351074 
	C436.554382,724.553589 436.476562,719.428101 442.994476,718.924988 
	C442.517975,721.905884 442.759613,724.881165 441.555542,727.056030 
	C438.385437,732.781982 440.708130,736.093079 445.589233,738.806274 
	C446.436981,739.277527 447.174469,739.947205 448.574615,740.973755 
	C447.082855,741.773987 446.044861,742.330750 444.618774,742.931519 
M413.014954,729.768005 
	C413.293457,738.260864 419.738129,740.169250 430.290649,734.214233 
	C428.351959,731.718445 426.535339,729.291626 424.626282,726.939941 
	C420.197083,721.483765 415.254883,720.766296 413.014954,729.768005 
z"/>
<path fill="#5766A3" opacity="1.000000" stroke="none" 
	d="
M369.276367,704.259094 
	C371.231781,702.203796 372.656982,699.879150 374.732300,698.759949 
	C376.891693,697.595459 379.678925,697.594971 382.191620,697.085510 
	C382.382874,697.598083 382.574097,698.110596 382.765350,698.623108 
	C377.739655,704.354736 372.816437,710.181213 367.639282,715.772583 
	C365.480743,718.103760 365.508667,719.735779 367.576080,722.108887 
	C373.211700,728.577637 378.609894,735.253113 384.460754,742.277222 
	C379.098633,743.884094 375.781158,742.632202 372.834686,738.909302 
	C369.123657,734.220459 365.046112,729.803406 360.897156,725.489807 
	C359.505432,724.042786 357.410248,723.272339 354.844360,721.710388 
	C354.844360,729.251770 354.844360,735.822937 354.844360,742.660522 
	C352.430695,742.660522 350.518372,742.660522 347.892822,742.660522 
	C347.892822,728.269897 347.830658,714.035645 348.039032,699.805359 
	C348.052277,698.900391 350.260529,697.238159 351.277527,697.359009 
	C352.296844,697.480286 353.817505,699.357483 353.879669,700.530640 
	C354.160522,705.832581 354.002380,711.157837 354.002380,717.488770 
	C361.415710,715.184387 364.633789,709.125854 369.276367,704.259094 
z"/>
<path fill="#5364A4" opacity="1.000000" stroke="none" 
	d="
M189.004593,711.013672 
	C189.004959,716.003052 188.898407,720.498779 189.030945,724.987366 
	C189.226151,731.597656 193.580261,736.571533 199.360474,737.022461 
	C205.838242,737.527832 210.574280,734.272888 211.367783,727.112305 
	C212.260559,719.056030 211.816437,710.853882 212.020248,702.716858 
	C212.056747,701.259094 211.962814,699.440613 212.758224,698.463928 
	C213.492477,697.562317 215.411804,697.123413 216.673080,697.326416 
	C217.544037,697.466614 218.831635,699.049927 218.826187,699.981934 
	C218.769913,709.610962 218.703064,719.249695 218.211197,728.863770 
	C217.673996,739.363770 207.974960,744.261902 198.820267,743.957703 
	C189.930527,743.662415 182.590073,736.413757 182.163086,727.149353 
	C181.757492,718.348938 181.904617,709.511414 182.202606,700.703491 
	C182.244385,699.468323 184.530441,698.309021 185.777634,697.114563 
	C186.849960,698.254211 188.677048,699.291870 188.847534,700.553406 
	C189.289261,703.821899 189.001266,707.189087 189.004593,711.013672 
z"/>
<path fill="#5565A3" opacity="1.000000" stroke="none" 
	d="
M536.812500,731.124329 
	C534.915405,733.718079 533.164429,736.108887 532.021484,738.761597 
	C530.445435,742.419373 528.240601,744.066406 523.745300,742.380554 
	C524.219788,740.517212 524.494446,738.588257 525.194275,736.828369 
	C529.610413,725.722290 534.042480,714.620789 538.670959,703.602478 
	C539.525269,701.568604 540.991394,699.520142 542.721497,698.188110 
	C545.455017,696.083496 547.996887,696.611572 549.407349,700.161499 
	C554.435364,712.816345 559.519775,725.449036 564.488098,738.127197 
	C564.994202,739.418823 564.862610,740.960449 565.030273,742.415283 
	C560.824646,743.970398 558.116760,742.273804 557.306091,738.878540 
	C555.695374,732.132507 551.623840,730.113831 545.209961,730.951904 
	C542.590820,731.294006 539.892212,731.027710 536.812500,731.124329 
M550.846985,720.840515 
	C548.912170,715.967529 546.977356,711.094543 544.557800,705.000610 
	C542.095764,711.374878 539.939331,716.506165 538.158875,721.764771 
	C537.312744,724.263855 538.506714,725.946289 541.408875,725.935608 
	C544.837891,725.922974 548.266968,725.932617 552.243713,725.932617 
	C551.728027,724.057068 551.392212,722.835938 550.846985,720.840515 
z"/>
<path fill="#5867A3" opacity="1.000000" stroke="none" 
	d="
M480.895264,716.377747 
	C485.407440,716.763733 489.567841,716.772034 493.705353,717.084167 
	C494.800934,717.166809 495.826019,718.184631 496.883484,718.773010 
	C496.091919,719.855469 495.469086,721.652710 494.477325,721.886780 
	C491.452515,722.600708 488.281403,723.027527 485.174805,722.987000 
	C480.072784,722.920349 478.986481,726.096741 479.061188,730.082275 
	C479.133301,733.927368 479.879700,737.431274 485.160980,737.101257 
	C488.978943,736.862671 492.825867,737.133850 496.656555,737.040894 
	C500.505493,736.947632 501.862854,738.626892 500.668854,742.654114 
	C491.507538,742.654114 482.253632,742.654114 472.220459,742.654114 
	C472.220459,740.405945 472.219971,738.141479 472.220551,735.877075 
	C472.223175,725.377991 472.119904,714.877380 472.266846,704.380310 
	C472.362061,697.577942 473.112213,697.004700 479.787994,697.000793 
	C486.600769,696.996765 493.413513,696.999878 500.606140,696.999878 
	C500.606140,699.016235 500.606140,700.719360 500.606140,702.882202 
	C493.610413,702.882202 486.677917,702.882202 478.399078,702.882202 
	C479.175201,707.690247 479.855042,711.902039 480.895264,716.377747 
z"/>
<path fill="#5365A4" opacity="1.000000" stroke="none" 
	d="
M610.940430,718.902283 
	C617.555115,723.963928 618.906128,729.919250 615.228699,736.503662 
	C612.092468,742.119019 602.993164,745.760742 597.111023,743.488342 
	C594.352112,742.422485 591.697205,740.938599 589.265320,739.254089 
	C588.380737,738.641357 587.588013,736.524353 587.997375,735.759644 
	C588.519714,734.783875 590.277039,734.087708 591.549622,734.005310 
	C592.756042,733.927185 594.002991,734.869507 595.269165,735.234314 
	C597.479980,735.871094 600.033569,737.368835 601.873596,736.766113 
	C604.699829,735.840271 608.391541,733.881653 609.159058,731.527649 
	C609.755310,729.698914 606.922546,726.023804 604.743164,724.223022 
	C602.561768,722.420593 599.241516,722.055542 596.523682,720.831238 
	C590.544922,718.138000 588.115173,713.552979 589.071594,707.148682 
	C589.854492,701.905945 594.677368,697.444702 600.503906,697.031982 
	C603.446533,696.823669 606.661926,696.671875 609.338135,697.641907 
	C611.684998,698.492554 613.451111,700.945312 615.473755,702.690430 
	C615.177002,703.270020 614.880249,703.849609 614.583496,704.429199 
	C612.701721,704.538086 610.819641,704.725037 608.938232,704.719055 
	C608.138489,704.716553 607.346741,704.147217 606.540039,704.114563 
	C602.618896,703.955688 597.664551,702.837646 596.459045,707.893860 
	C595.382507,712.409241 599.609192,714.276245 603.224487,715.773193 
	C605.673889,716.787292 608.145325,717.748352 610.940430,718.902283 
z"/>
<path fill="#5465A4" opacity="1.000000" stroke="none" 
	d="
M305.019653,744.003967 
	C294.198883,742.623047 286.123291,738.019958 283.634277,727.158936 
	C281.527496,717.966003 282.884857,709.215515 290.050720,702.279541 
	C296.982483,695.570251 310.148132,694.715271 317.738647,700.495728 
	C318.802490,701.305908 319.104462,703.116455 319.759064,704.463928 
	C318.324341,704.983704 316.921021,705.733398 315.442902,705.935059 
	C314.585815,706.052063 313.576324,705.352356 312.690125,704.910400 
	C300.320129,698.741699 289.224335,708.056152 290.186920,721.765381 
	C291.092834,734.666992 301.558563,740.528625 313.371735,735.215271 
	C313.675262,735.078735 313.979279,734.784668 314.269135,734.801636 
	C316.384888,734.925964 318.497040,735.111145 320.610352,735.277100 
	C319.585602,736.834045 318.906738,739.137634 317.469208,739.803711 
	C313.635376,741.579956 309.475220,742.651917 305.019653,744.003967 
z"/>
<path fill="#5665A4" opacity="1.000000" stroke="none" 
	d="
M668.393921,715.419189 
	C661.761963,723.582886 661.237366,732.936462 662.194519,742.361206 
	C655.209045,743.362854 654.537964,743.173645 655.097839,737.402222 
	C656.133545,726.727051 652.027954,718.012146 646.103271,709.689636 
	C643.620544,706.202209 641.588989,702.393494 639.347717,698.723206 
	C643.912048,696.146423 646.395508,696.844788 648.977417,701.211182 
	C652.096802,706.486938 655.136169,711.809875 658.858765,718.231201 
	C662.566650,712.007324 665.842712,706.592224 669.031433,701.126282 
	C671.168030,697.463745 673.783997,695.641602 678.620422,698.663391 
	C675.247864,704.203918 671.925598,709.661865 668.393921,715.419189 
z"/>
<path fill="#5666A4" opacity="1.000000" stroke="none" 
	d="
M255.775223,712.011108 
	C255.774887,721.150269 255.708542,729.792725 255.811386,738.433228 
	C255.846252,741.362427 255.353363,743.094116 251.766861,743.030090 
	C248.244659,742.967102 248.180054,740.979004 248.215378,738.469238 
	C248.385880,726.351196 248.522491,714.232727 248.669022,702.114380 
	C248.701309,699.443604 248.996353,696.986389 252.578903,697.061646 
	C256.120483,697.135986 255.775146,699.697510 255.775177,702.041016 
	C255.775223,705.198547 255.775330,708.356140 255.775223,712.011108 
z"/>
<path fill="#5866A3" opacity="1.000000" stroke="none" 
	d="
M387.936218,785.998657 
	C385.512665,784.174988 385.765900,783.113159 388.442291,783.028809 
	C392.028870,782.915710 395.621674,783.000793 399.336884,783.000793 
	C395.809235,790.126038 395.060059,790.325806 387.936218,785.998657 
z"/>
<path fill="#F4AF85" opacity="1.000000" stroke="none" 
	d="
M499.000732,568.128784 
	C490.968048,567.416382 483.289642,567.357971 475.961060,565.727417 
	C472.042664,564.855530 468.147766,561.830017 465.245850,558.811646 
	C455.558716,548.735474 445.867645,538.593201 437.090424,527.738586 
	C431.910370,521.332581 426.649567,519.764221 418.706177,520.905640 
	C406.136841,522.711914 393.149872,524.971985 380.700897,523.646545 
	C337.438507,519.040710 294.399200,496.580994 277.812347,444.327972 
	C271.969330,425.920898 268.166290,407.126831 270.195129,387.975281 
	C274.981140,342.796783 303.078125,291.992432 363.101288,279.869934 
	C377.242615,277.013885 391.575714,275.640076 405.690643,277.243408 
	C452.986298,282.615875 488.528595,305.090088 506.571625,350.741364 
	C513.282410,367.720490 515.326599,385.578369 515.195496,403.948914 
	C515.000977,431.209778 507.211578,455.754211 491.100647,477.430237 
	C484.518738,486.285736 476.078644,493.760132 467.891754,502.494537 
	C487.119141,523.507324 506.933838,545.161987 527.949158,568.128723 
	C517.500854,568.128723 508.500702,568.128723 499.000732,568.128784 
M457.885071,450.308594 
	C464.011810,438.769409 468.244965,426.510254 468.872345,413.492126 
	C469.665558,397.033600 469.495361,380.646851 464.181946,364.553558 
	C457.455566,344.180695 444.781189,329.458527 425.275299,321.030884 
	C411.871033,315.239532 397.712891,314.308105 383.059631,315.818207 
	C359.822357,318.212921 341.011505,327.909363 329.503632,348.300964 
	C312.972565,377.593567 311.870178,408.579132 323.371399,439.974976 
	C330.096069,458.331940 342.235626,471.822571 360.669617,479.254181 
	C372.566132,484.050201 384.917358,485.479309 397.635712,485.025024 
	C423.570007,484.098785 444.168304,473.930634 457.885071,450.308594 
z"/>
<path fill="#F2AD85" opacity="1.000000" stroke="none" 
	d="
M146.441437,729.087402 
	C142.338150,735.620544 135.141586,739.252197 129.642059,737.807007 
	C121.974548,735.792053 117.084396,729.494873 116.890594,721.386719 
	C116.618843,710.017517 122.375183,703.162170 132.413162,702.900696 
	C140.811798,702.681885 147.285873,708.061584 147.869415,716.512695 
	C148.147736,720.543396 147.088333,724.666504 146.441437,729.087402 
z"/>
<path fill="#EBAA87" opacity="1.000000" stroke="none" 
	d="
M413.078735,729.368896 
	C415.254883,720.766296 420.197083,721.483765 424.626282,726.939941 
	C426.535339,729.291626 428.351959,731.718445 430.290649,734.214233 
	C419.738129,740.169250 413.293457,738.260864 413.078735,729.368896 
z"/>
<path fill="#E6A888" opacity="1.000000" stroke="none" 
	d="
M550.951721,721.227661 
	C551.392212,722.835938 551.728027,724.057068 552.243713,725.932617 
	C548.266968,725.932617 544.837891,725.922974 541.408875,725.935608 
	C538.506714,725.946289 537.312744,724.263855 538.158875,721.764771 
	C539.939331,716.506165 542.095764,711.374878 544.557800,705.000610 
	C546.977356,711.094543 548.912170,715.967529 550.951721,721.227661 
z"/>
<path fill="#4A60A6" opacity="1.000000" stroke="none" 
	d="
M457.695129,450.624725 
	C444.168304,473.930634 423.570007,484.098785 397.635712,485.025024 
	C384.917358,485.479309 372.566132,484.050201 360.669617,479.254181 
	C342.235626,471.822571 330.096069,458.331940 323.371399,439.974976 
	C311.870178,408.579132 312.972565,377.593567 329.503632,348.300964 
	C341.011505,327.909363 359.822357,318.212921 383.059631,315.818207 
	C397.712891,314.308105 411.871033,315.239532 425.275299,321.030884 
	C444.781189,329.458527 457.455566,344.180695 464.181946,364.553558 
	C469.495361,380.646851 469.665558,397.033600 468.872345,413.492126 
	C468.244965,426.510254 464.011810,438.769409 457.695129,450.624725 
z"/>
</svg>