<?xml version="1.0" encoding="UTF-8"?>
<svg id="Layer_1" data-name="Layer 1" xmlns="http://www.w3.org/2000/svg" viewBox="0 0 1153 1200">
  <defs>
    <style>
      .cls-1 {
        fill: none;
      }

      .cls-1, .cls-2, .cls-3, .cls-4, .cls-5, .cls-6, .cls-7, .cls-8, .cls-9, .cls-10, .cls-11, .cls-12, .cls-13, .cls-14, .cls-15 {
        stroke-width: 0px;
      }

      .cls-2 {
        fill: #f4ae85;
      }

      .cls-3 {
        fill: #4960a6;
      }

      .cls-4 {
        fill: #4f63a5;
      }

      .cls-5 {
        fill: #5063a5;
      }

      .cls-6 {
        fill: #5163a5;
      }

      .cls-7 {
        fill: #5163a4;
      }

      .cls-8 {
        fill: #4e62a5;
      }

      .cls-9 {
        fill: #4a60a6;
      }

      .cls-10 {
        fill: #5565a4;
      }

      .cls-11 {
        fill: #5364a4;
      }

      .cls-12 {
        fill: #5766a3;
      }

      .cls-13 {
        fill: #eeab86;
      }

      .cls-14 {
        fill: #ebaa87;
      }

      .cls-15 {
        fill: #f5af85;
      }
    </style>
  </defs>
  <path class="cls-1" d="m760.02,1200c-246.78-1-506.84,0-760.02,0V0h1153v1200h-392.98m100.96-541.41c14.1-15.71,28.21-31.41,42.3-47.13,4.78-5.34,4.8-8.42.05-13.72-114.2-127.5-228.4-254.99-342.62-382.48-5.41-6.03-7.72-5.97-13.28.23-113.72,126.83-227.43,253.66-341.15,380.49-6.43,7.17-6.44,9.27-.13,16.31,68.23,76.19,136.46,152.37,204.69,228.56,1.32,1.48,2.58,3.01,3.87,4.52-.22.41-.43.82-.65,1.23h-167.89v127.14h6.87c90.47,0,180.94.02,271.4-.08,3.84,0,6.6,1.01,9.14,4.08,4.92,5.92,10.19,11.52,15.36,17.21,3.99,4.39,6.25,4.35,10.31-.14,4.94-5.46,10.04-10.78,14.68-16.5,2.86-3.53,5.98-4.67,10.36-4.66,90.79.12,181.58.06,272.36.19,4.52,0,6.02-1.15,6-6.08-.19-38.16-.1-76.32-.1-114.49q0-6.9-6.51-6.91c-52.04,0-104.08,0-156.12-.02-1.96,0-3.92-.2-7.08-.36,56.49-62.96,112.08-124.92,168.13-187.4Z"/>
  <path class="cls-2" d="m871.18,658.85c-58.1,62.22-115.95,124.17-174.75,187.14,3.29.17,5.33.36,7.37.36,54.16.02,108.32.01,162.48.02q6.76,0,6.77,6.91c0,38.16-.09,76.32.11,114.49.03,4.93-1.54,6.08-6.24,6.08-94.49-.13-188.98-.06-283.47-.19-4.55,0-7.8,1.13-10.78,4.66-4.83,5.72-10.14,11.04-15.28,16.5-4.23,4.5-6.58,4.54-10.73.14-5.38-5.69-10.87-11.3-15.99-17.21-2.65-3.06-5.52-4.08-9.52-4.08-94.16.1-188.31.08-282.47.08h-7.15v-127.14h174.74c.23-.41.45-.82.68-1.23-1.34-1.51-2.65-3.04-4.02-4.52-71.01-76.19-142.02-152.38-213.03-228.56-6.57-7.04-6.55-9.14.14-16.31,118.35-126.83,236.7-253.66,355.05-380.49,5.79-6.2,8.19-6.27,13.82-.23,118.87,127.49,237.73,254.98,356.58,382.48,4.94,5.3,4.93,8.39-.05,13.72-14.66,15.72-29.35,31.42-44.26,47.39m-68.94,32.54c26.92-28.89,53.83-57.77,81.07-87-110.51-118.55-220.83-236.88-331.37-355.45-110.61,118.65-220.89,236.95-331.26,355.34,1.44,1.65,2.38,2.8,3.39,3.89,72.61,77.9,145.25,155.78,217.78,233.75,2.99,3.21,5.98,4.53,10.34,4.52,66.17-.12,132.33-.14,198.5.03,5.14.01,8.58-1.57,12.03-5.29,46.26-49.84,92.66-99.54,139.5-149.79m-254.76-459.7c-115.75,124.17-231.5,248.35-347.34,372.63,1.55,1.73,2.75,3.11,3.99,4.44,72.49,77.77,145.04,155.49,217.38,233.39,4.41,4.75,8.84,4.6,14.87,3.63-1.64-1.88-2.77-3.26-3.97-4.55-71.92-77.16-143.85-154.32-215.78-231.47-4.69-5.03-4.73-5.59-.41-10.23,109.3-117.26,218.61-234.53,327.92-351.78,8.77-9.41,6.89-9,15.4.13,108.43,116.26,216.8,232.56,325.21,348.84,7.99,8.57,8.11,7.39-.02,16.11-71.29,76.39-142.57,152.77-213.85,229.16-1.02,1.1-1.92,2.31-3.1,3.75,6.81,1.6,11.24.07,15.71-4.74,71.2-76.7,142.61-153.19,213.97-229.74,2.03-2.18,4.01-4.4,6.32-6.93-117.31-125.84-234.43-251.47-352.13-377.73-1.42,1.76-2.56,3.17-4.17,5.08m-234.01,684.75c1.57-10.49-.44-19.68-10.15-25.57-8.15-4.95-19.75-3.83-26.67,2.15-7.1,6.14-9.65,17.81-6.03,27.61,3.28,8.87,11.34,14.49,21.57,13.53,5.73-.54,9.5.9,12.61,5.43,2.56,3.73,6.13,4.42,11,2.82-3.81-4.2-7.21-7.94-9.7-10.69,2.73-5.44,5-9.95,7.37-15.28m274.23-21.48c1.63,2.55,3.1,5.53,6.95,2.37-.15-4.79-3.17-7.55-7.34-8.86-4.89-1.53-9.77-.84-13.38,3.1-4.88,5.32-3.12,11.07-.19,16.6-8.92,7.58-11.09,14.13-6.82,20.28,5.34,7.67,14.58,7.92,27.03.58,3.39,2.84,6.52,7.23,13.76,3.14-2.43-1.69-4.37-3-6.28-4.36-3.03-2.16-3.51-4.55-1.71-8.06,1.35-2.63,1.47-5.9,2.14-8.88-.54-.41-1.08-.82-1.62-1.24-1.34,1.08-3.08,1.92-3.91,3.31-1.11,1.86-1.52,4.14-2.57,7.25-5.52-5.84-10.45-10.75-14.99-15.99-2.37-2.73-2.76-6.23-.14-9.13,2.46-2.73,5.51-2.79,9.07-.09m-47.04,35.14c-5.63-6.71-11.26-13.42-16.96-20.22,6.29-7.15,12.22-13.88,18.52-21.02-5.2-1.37-8.21-.17-10.84,3.06-3.78,4.64-7.79,9.1-11.92,13.44-1.3,1.36-3.29,2.08-6.07,3.76v-20.15c-6.34-1.24-6.64-1.04-6.66,4.58-.04,11.81-.03,23.62,0,35.43,0,1.58.26,3.16.39,4.7h6.55v-21.43c3.1,1.85,5.28,2.61,6.68,4.1,4.33,4.6,8.57,9.32,12.44,14.3,2.8,3.6,5.96,3.88,10.27,2.82-.84-1.24-1.39-2.04-2.4-3.37m-199.4-15.75c.01.83,0,1.66.04,2.49.51,10.8,7.13,17.35,17.7,17.52,11.03.18,17.96-6.12,18.52-17.1.26-5.14.12-10.31.14-15.46.02-4.4,0-8.79,0-12.93-4.92-1.43-6.79-.37-6.63,4.19.26,7.47.22,14.97-.01,22.45-.25,8.05-4.78,12.83-11.64,12.79-6.86-.03-11.16-4.8-11.35-13-.17-7.31-.02-14.63-.08-21.95-.04-5.43-.61-5.79-6.7-4.2,0,7.99,0,16.11,0,25.2m297.21-11.03v-9.45h21.51v-5.68c-8.02,0-15.8.17-23.58-.07-3.87-.12-4.82,1.49-4.76,5.02.16,9.16.05,18.32.05,27.48,0,4.29,0,8.57,0,13.13h27.99c1.28-3.66.57-5.58-3.56-5.46-4.66.13-9.33.14-13.99-.08-1.2-.06-3.32-1.1-3.38-1.82-.3-3.79-.8-7.88.37-11.32.42-1.22,5.34-.96,8.22-1.27,1.32-.14,2.78.31,3.97-.11,1.7-.59,4.33-1.49,4.59-2.68.73-3.4-2.29-2.8-4.34-2.85-3.16-.08-6.33-.15-9.49,0-2.93.14-3.88-1.24-3.6-4.83m53.89,22.1c.63-2.98,2.53-3.93,5.44-3.69,2.31.19,4.66.03,6.98.03,8.5,0,8.7-.07,11.56,7.79,1.54,4.22,3.96,5.29,8.33,3.8-.47-1.49-.82-2.91-1.36-4.26-4.92-12.35-9.91-24.68-14.78-37.05-.93-2.35-1.97-4.64-4.83-3.7-1.86.61-4.15,2.04-4.84,3.69-5.35,12.71-10.37,25.57-15.46,38.39-.4,1-.55,2.09-.79,3.06,7.29,2.51,7.68-3.26,9.75-8.06m-242.93,4.03c10.21,7.58,24.7,6.44,30.52-2.42-1.48-2.49-2.97-3.46-5.97-1.53-7.5,4.81-15.74,3.86-20.82-1.94-5.37-6.13-5.63-17.63-.55-24.19,4.58-5.91,12.48-7.31,20.24-3.13,3.69,1.98,5.42,1.05,6.46-2.56-11.43-10.5-30.14-6.69-35.34,7.45-3.66,9.93-2.83,19.64,5.46,28.32m316.6-13.75c1.05,2.39,3.41,5.21,2.8,7.06-.76,2.3-3.79,5.03-6.15,5.35-3.12.43-6.91-.63-9.75-2.23-3.71-2.09-5.43-1.47-6.53,2.32,5.17,5.92,14.32,7.97,21.4,4.85,5.23-2.3,8.23-7.18,8.12-13.22-.1-5.59-3.32-8.83-8.17-10.82-3.23-1.33-6.78-2.15-9.63-4.03-1.72-1.14-3.64-4.2-3.22-5.81.54-2.05,3.16-4.62,5.22-4.96,2.85-.47,5.99,1.06,9.05,1.44,1.49.18,3.07-.31,4.61-.5-.56-1.6-.65-3.94-1.77-4.68-4.71-3.07-10.02-3.43-15.34-1.74-5.26,1.67-8.28,5.77-8.51,11.11-.25,5.66,2.05,9.48,7.39,11.78,3.2,1.38,6.54,2.45,10.47,4.06m55.31,8.81c-.8-5.91,1.03-10.95,4.36-15.86,4.25-6.26,7.92-12.9,11.94-19.56-6.19-1.44-6.74-1.25-9.47,3.34-3.34,5.61-6.64,11.24-10.21,17.28-3.7-6.26-7.2-11.73-10.21-17.46-2.14-4.06-4.99-4.73-9.56-3.29,2.58,4.29,4.7,8.41,7.37,12.14,6.34,8.88,10.87,18.2,9,29.55-.15.91.26,1.91.43,3.01h6.36v-9.16m-406.88,1.88v-37.47c-5.53-1.82-7.03.13-6.83,4.81.26,6.14.06,12.3.06,18.46,0,7.11,0,14.23,0,21.45h6.76c0-2.33,0-4.3,0-7.24m139.2,53.64c1.64-1.75,3.28-3.51,5.47-5.85h-13.4l-.62,1.45c2.68,1.64,5.35,3.27,8.55,4.4Z"/>
  <path class="cls-3" d="m802,691.66c-46.61,50-93.01,99.7-139.27,149.53-3.46,3.72-6.89,5.3-12.03,5.29-66.17-.17-132.33-.15-198.5-.03-4.37,0-7.35-1.3-10.34-4.52-72.53-77.98-145.17-155.85-217.78-233.75-1.01-1.09-1.96-2.24-3.39-3.89,110.37-118.39,220.65-236.7,331.26-355.34,110.54,118.58,220.85,236.91,331.37,355.45-27.24,29.23-54.15,58.11-81.31,87.26m-191.16,43.34c3.7,4.07,7.55,8.01,11.05,12.25,6.89,8.33,15.81,11.87,26.38,11.87,11.33,0,22.66.02,34,0,1.05,0,2.1-.27,3.94-.53-20.43-22.3-40.31-43.99-60.44-65.96,1.59-1.33,2.81-2.42,4.09-3.42,12.36-9.73,22.19-21.58,29.5-35.48,13.23-25.15,17.49-52.03,13.84-79.96-5.88-45.06-28.5-78.31-71.04-96.39-21.98-9.34-45.16-11.39-68.67-8.25-34.39,4.59-62.87,19.98-82.23,49.25-24.7,37.36-27.65,77.96-13.35,119.61,11.54,33.59,35,56.61,68.41,68.89,24.72,9.08,50.15,10.08,75.77,4.43,4.72-1.04,7.55-.26,10.59,3.45,5.59,6.82,11.76,13.17,18.16,20.25Z"/>
  <path class="cls-8" d="m547.71,231.44c1.38-1.66,2.52-3.07,3.94-4.83,117.7,126.26,234.82,251.89,352.13,377.73-2.31,2.53-4.29,4.75-6.32,6.93-71.36,76.54-142.77,153.04-213.97,229.74-4.47,4.81-8.9,6.34-15.71,4.74,1.18-1.44,2.08-2.65,3.1-3.75,71.28-76.39,142.57-152.78,213.85-229.16,8.13-8.71,8-7.54.02-16.11-108.41-116.28-216.79-232.58-325.21-348.84-8.51-9.13-6.63-9.54-15.4-.13-109.32,117.25-218.62,234.52-327.92,351.78-4.33,4.64-4.28,5.21.41,10.23,71.93,77.15,143.86,154.31,215.78,231.47,1.21,1.29,2.33,2.67,3.97,4.55-6.03.96-10.46,1.11-14.87-3.63-72.35-77.9-144.89-155.62-217.38-233.39-1.24-1.33-2.44-2.71-3.99-4.44,115.84-124.28,231.59-248.45,347.58-372.88Z"/>
  <path class="cls-4" d="m313.42,916.86c-2.32,4.92-4.59,9.43-7.32,14.87,2.49,2.75,5.89,6.49,9.7,10.69-4.88,1.6-8.44.91-11-2.82-3.11-4.53-6.89-5.97-12.61-5.43-10.23.96-18.3-4.66-21.57-13.53-3.62-9.8-1.07-21.47,6.03-27.61,6.91-5.98,18.52-7.09,26.67-2.15,9.71,5.89,11.72,15.08,10.11,25.98m-32.59-18.9c-.88,1.2-1.92,2.31-2.62,3.61-5.74,10.59-.75,24.32,9.57,26.46,7.5,1.56,14.18-1.37,17.32-7.6,3.82-7.59,2.22-18.13-3.5-23.05-5.47-4.7-13.3-4.68-20.77.57Z"/>
  <path class="cls-5" d="m587.43,894.7c-3.29-2.42-6.34-2.36-8.8.36-2.62,2.9-2.23,6.4.14,9.13,4.54,5.24,9.47,10.15,14.99,15.99,1.05-3.11,1.46-5.39,2.57-7.25.83-1.39,2.58-2.22,3.91-3.31.54.41,1.08.82,1.62,1.24-.67,2.98-.78,6.25-2.14,8.88-1.81,3.51-1.32,5.9,1.71,8.06,1.9,1.36,3.84,2.67,6.28,4.36-7.24,4.08-10.36-.3-13.76-3.14-12.45,7.35-21.69,7.09-27.03-.58-4.28-6.15-2.1-12.69,6.82-20.28-2.93-5.52-4.69-11.27.19-16.6,3.61-3.94,8.49-4.63,13.38-3.1,4.17,1.31,7.19,4.07,7.34,8.86-3.85,3.15-5.32.17-7.22-2.65m-.28,27.08c-2.58-2.6-4.99-5.4-7.83-7.67-.94-.75-4.04-.66-4.34-.05-1.46,2.93-3.37,6.31-3,9.25.27,2.11,3.81,5.2,6.05,5.35,3.49.23,7.13-1.67,10.7-2.66-.36-1.23-.72-2.47-1.59-4.22Z"/>
  <path class="cls-11" d="m540.89,930.38c.78,1.07,1.32,1.87,2.17,3.1-4.31,1.06-7.47.78-10.27-2.82-3.87-4.98-8.11-9.7-12.44-14.3-1.4-1.49-3.58-2.25-6.68-4.1v21.43h-6.55c-.14-1.55-.39-3.12-.39-4.7-.03-11.81-.04-23.62,0-35.43.02-5.62.32-5.82,6.66-4.58v20.15c2.78-1.68,4.77-2.39,6.07-3.76,4.13-4.33,8.14-8.79,11.92-13.44,2.63-3.23,5.64-4.43,10.84-3.06-6.3,7.15-12.22,13.88-18.52,21.02,5.7,6.8,11.33,13.51,17.19,20.48Z"/>
  <path class="cls-5" d="m341.26,913.88c0-8.6,0-16.72,0-24.72,6.09-1.59,6.66-1.23,6.7,4.2.06,7.32-.1,14.64.08,21.95.2,8.19,4.49,12.96,11.35,13,6.86.03,11.39-4.74,11.64-12.79.23-7.48.27-14.97.01-22.45-.16-4.56,1.71-5.62,6.63-4.19,0,4.13.01,8.53,0,12.93-.02,5.15.12,10.32-.14,15.46-.55,10.97-7.49,17.28-18.52,17.1-10.57-.17-17.2-6.73-17.7-17.52-.04-.83-.03-1.66-.04-2.98Z"/>
  <path class="cls-12" d="m638.47,903.8c-.28,3.13.67,4.51,3.6,4.37,3.16-.15,6.33-.08,9.49,0,2.04.05,5.07-.55,4.34,2.85-.26,1.19-2.89,2.09-4.59,2.68-1.19.41-2.65-.04-3.97.11-2.88.31-7.8.05-8.22,1.27-1.17,3.44-.67,7.52-.37,11.32.06.72,2.17,1.76,3.38,1.82,4.65.22,9.33.22,13.99.08,4.13-.12,4.84,1.79,3.56,5.46h-27.99c0-4.55,0-8.84,0-13.13,0-9.16.11-18.32-.05-27.48-.06-3.53.89-5.14,4.76-5.02,7.77.24,15.56.07,23.58.07v5.68h-21.51c0,3.57,0,6.51,0,9.91Z"/>
  <path class="cls-7" d="m692.24,925.82c-1.94,4.41-2.33,10.19-9.62,7.68.25-.97.4-2.07.79-3.06,5.09-12.82,10.11-25.68,15.46-38.39.7-1.65,2.99-3.08,4.84-3.69,2.85-.94,3.9,1.34,4.83,3.7,4.87,12.37,9.86,24.7,14.78,37.05.54,1.35.89,2.78,1.36,4.26-4.37,1.49-6.79.42-8.33-3.8-2.86-7.86-3.06-7.79-11.56-7.79-2.33,0-4.67.15-6.98-.03-2.91-.24-4.82.71-5.57,4.08m6.32-9.11h12.92c-2.72-7.03-5.05-13.05-7.87-20.34-2.25,5.79-3.98,10.23-5.7,14.67-.42,1.08-1.04,2.15-1.15,3.26-.07.73.61,1.54,1.79,2.41Z"/>
  <path class="cls-5" d="m449.17,929.22c-8.02-8.44-8.85-18.14-5.19-28.08,5.21-14.14,23.91-17.95,35.34-7.45-1.04,3.61-2.77,4.54-6.46,2.56-7.77-4.18-15.67-2.78-20.24,3.13-5.08,6.56-4.82,18.06.55,24.19,5.08,5.8,13.32,6.74,20.82,1.94,3-1.92,4.49-.96,5.97,1.53-5.82,8.86-20.31,10-30.79,2.18Z"/>
  <path class="cls-4" d="m765.71,915.52c-3.6-1.41-6.94-2.48-10.15-3.86-5.34-2.3-7.64-6.12-7.39-11.78.23-5.33,3.25-9.44,8.51-11.11,5.32-1.69,10.63-1.33,15.34,1.74,1.13.74,1.21,3.08,1.77,4.68-1.54.19-3.12.68-4.61.5-3.05-.38-6.2-1.92-9.05-1.44-2.06.34-4.68,2.91-5.22,4.96-.42,1.61,1.5,4.67,3.22,5.81,2.85,1.88,6.4,2.7,9.63,4.03,4.84,1.99,8.07,5.23,8.17,10.82.1,6.04-2.89,10.91-8.12,13.22-7.08,3.12-16.24,1.06-21.4-4.85,1.1-3.79,2.82-4.41,6.53-2.32,2.84,1.6,6.63,2.66,9.75,2.23,2.36-.33,5.39-3.05,6.15-5.35.61-1.85-1.76-4.67-3.13-7.26Z"/>
  <path class="cls-6" d="m821.35,925v8.68h-6.36c-.17-1.1-.58-2.1-.43-3.01,1.86-11.35-2.66-20.67-9-29.55-2.66-3.73-4.79-7.85-7.37-12.14,4.57-1.44,7.42-.77,9.56,3.29,3.02,5.73,6.52,11.2,10.21,17.46,3.57-6.04,6.88-11.67,10.21-17.28,2.73-4.59,3.28-4.79,9.47-3.34-4.02,6.65-7.7,13.3-11.94,19.56-3.33,4.91-5.16,9.95-4.36,16.34Z"/>
  <path class="cls-10" d="m414.46,926.89c0,2.45,0,4.42,0,6.75h-6.76c0-7.22,0-14.33,0-21.45,0-6.15.2-12.31-.06-18.46-.2-4.68,1.3-6.63,6.83-4.81,0,12.33,0,24.9,0,37.96Z"/>
  <path class="cls-11" d="m553.4,980.31c-2.93-1.38-5.61-3.02-8.29-4.66l.62-1.45h13.4c-2.19,2.35-3.83,4.1-5.73,6.11Z"/>
  <path class="cls-15" d="m610.6,734.74c-6.17-6.81-12.33-13.16-17.92-19.98-3.04-3.71-5.87-4.49-10.59-3.45-25.62,5.64-51.06,4.65-75.77-4.43-33.42-12.28-56.87-35.29-68.41-68.89-14.3-41.65-11.35-82.25,13.35-119.61,19.36-29.28,47.84-44.67,82.23-49.25,23.51-3.14,46.69-1.08,68.67,8.25,42.55,18.07,65.16,51.33,71.04,96.39,3.65,27.94-.61,54.81-13.84,79.96-7.31,13.9-17.14,25.75-29.5,35.48-1.28,1.01-2.5,2.09-4.09,3.42,20.13,21.96,40.01,43.66,60.44,65.96-1.84.26-2.89.53-3.94.53-11.33.02-22.66,0-34,0-10.58,0-19.5-3.54-26.38-11.87-3.5-4.23-7.36-8.17-11.29-12.51m-77.53-226.69c-27.57,6.33-44.84,23.64-52.83,50.35-6.4,21.4-6.44,43.1-.38,64.55,7.33,25.95,23.52,43.96,50.22,50.41,9.7,2.34,20.2,3.06,30.17,2.34,28.23-2.06,48.95-15.9,60.26-42.36,8.63-20.21,9.54-41.33,6.17-62.75-2.51-15.94-8.26-30.62-19.57-42.42-20.29-21.17-45.65-24.86-74.04-20.12Z"/>
  <path class="cls-2" d="m281.11,897.7c7.18-5,15.02-5.02,20.49-.32,5.73,4.92,7.33,15.46,3.5,23.05-3.14,6.23-9.82,9.16-17.32,7.6-10.32-2.14-15.31-15.88-9.57-26.46.7-1.29,1.74-2.41,2.9-3.86Z"/>
  <path class="cls-13" d="m587.41,922.04c.61,1.49.97,2.73,1.33,3.96-3.57,1-7.21,2.89-10.7,2.66-2.25-.15-5.78-3.23-6.05-5.35-.38-2.95,1.54-6.32,3-9.25.3-.61,3.4-.7,4.34.05,2.84,2.27,5.25,5.08,8.09,7.93Z"/>
  <path class="cls-14" d="m698.14,916.66c-.76-.82-1.45-1.63-1.38-2.36.11-1.11.73-2.18,1.15-3.26,1.72-4.44,3.45-8.88,5.7-14.67,2.82,7.29,5.15,13.3,7.87,20.34-4.83,0-8.88,0-13.34-.05Z"/>
  <path class="cls-9" d="m533.49,507.99c27.97-4.69,53.33-1,73.62,20.18,11.31,11.8,17.06,26.48,19.57,42.42,3.38,21.42,2.47,42.54-6.17,62.75-11.31,26.46-32.03,40.3-60.26,42.36-9.97.73-20.46,0-30.17-2.34-26.7-6.45-42.89-24.45-50.22-50.41-6.06-21.44-6.02-43.15.38-64.55,7.99-26.72,25.25-44.02,53.25-50.41Z"/>
</svg>